<mxfile host="app.diagrams.net" modified="2020-12-07T07:42:36.512Z" agent="5.0 (Windows)" etag="EFg7I2PP3V6zYU58wZFE" version="13.10.4" type="github">
  <diagram id="dFlDIrd7vTW-9JRNy9Qg" name="Page-1">
    <mxGraphModel dx="1278" dy="519" grid="1" gridSize="10" guides="1" tooltips="1" connect="1" arrows="1" fold="1" page="1" pageScale="1" pageWidth="827" pageHeight="1169" math="0" shadow="0">
      <root>
        <mxCell id="0" />
        <mxCell id="1" parent="0" />
        <mxCell id="5FUb5qHOoI7R9_QMYOB9-11" value="&lt;br&gt;&lt;div&gt;&lt;br&gt;&lt;/div&gt;&lt;div&gt;&lt;br&gt;&lt;/div&gt;&lt;div&gt;&lt;br&gt;&lt;/div&gt;&lt;div&gt;&lt;br&gt;&lt;/div&gt;&lt;div&gt;&lt;br&gt;&lt;/div&gt;&lt;div&gt;&lt;br&gt;&lt;/div&gt;&lt;div&gt;&lt;br&gt;&lt;/div&gt;&lt;div&gt;&lt;br&gt;&lt;/div&gt;&lt;div&gt;&lt;br&gt;&lt;/div&gt;&lt;div&gt;Master Node&lt;/div&gt;" style="rounded=0;whiteSpace=wrap;html=1;" parent="1" vertex="1">
          <mxGeometry x="270" y="112" width="150" height="238" as="geometry" />
        </mxCell>
        <mxCell id="5FUb5qHOoI7R9_QMYOB9-13" value="" style="aspect=fixed;html=1;points=[];align=center;image;fontSize=12;image=img/lib/mscae/Kubernetes.svg;" parent="1" vertex="1">
          <mxGeometry x="320" y="230" width="50" height="48" as="geometry" />
        </mxCell>
        <mxCell id="5FUb5qHOoI7R9_QMYOB9-14" value="&lt;div&gt;容器安全防护平台&lt;/div&gt;&lt;div&gt;管理中心&lt;/div&gt;" style="rounded=0;whiteSpace=wrap;html=1;fillColor=#CC0000;" parent="1" vertex="1">
          <mxGeometry x="270" y="110" width="150" height="60" as="geometry" />
        </mxCell>
        <mxCell id="5FUb5qHOoI7R9_QMYOB9-15" value="" style="rounded=0;whiteSpace=wrap;html=1;fillColor=#FFFFFF;" parent="1" vertex="1">
          <mxGeometry x="480" y="110" width="310" height="100" as="geometry" />
        </mxCell>
        <mxCell id="5FUb5qHOoI7R9_QMYOB9-17" value="POD" style="rounded=0;whiteSpace=wrap;html=1;fillColor=#FFFFFF;" parent="1" vertex="1">
          <mxGeometry x="570" y="140" width="60" height="40" as="geometry" />
        </mxCell>
        <mxCell id="5FUb5qHOoI7R9_QMYOB9-18" value="POD" style="rounded=0;whiteSpace=wrap;html=1;fillColor=#FFFFFF;" parent="1" vertex="1">
          <mxGeometry x="640" y="140" width="60" height="40" as="geometry" />
        </mxCell>
        <mxCell id="5FUb5qHOoI7R9_QMYOB9-19" value="POD" style="rounded=0;whiteSpace=wrap;html=1;fillColor=#FFFFFF;" parent="1" vertex="1">
          <mxGeometry x="710" y="140" width="60" height="40" as="geometry" />
        </mxCell>
        <mxCell id="5FUb5qHOoI7R9_QMYOB9-16" value="&lt;font color=&quot;#FF3108&quot;&gt;防御POD&lt;/font&gt;" style="rounded=0;whiteSpace=wrap;html=1;fillColor=#FFFFFF;strokeColor=#FF1E05;" parent="1" vertex="1">
          <mxGeometry x="500" y="140" width="60" height="40" as="geometry" />
        </mxCell>
        <mxCell id="5FUb5qHOoI7R9_QMYOB9-20" value="Worker Node " style="text;html=1;strokeColor=none;fillColor=none;align=center;verticalAlign=middle;whiteSpace=wrap;rounded=0;" parent="1" vertex="1">
          <mxGeometry x="560" y="114" width="130" height="20" as="geometry" />
        </mxCell>
        <mxCell id="5FUb5qHOoI7R9_QMYOB9-21" value="" style="rounded=0;whiteSpace=wrap;html=1;fillColor=#FFFFFF;" parent="1" vertex="1">
          <mxGeometry x="480" y="247" width="310" height="100" as="geometry" />
        </mxCell>
        <mxCell id="5FUb5qHOoI7R9_QMYOB9-22" value="POD" style="rounded=0;whiteSpace=wrap;html=1;fillColor=#FFFFFF;" parent="1" vertex="1">
          <mxGeometry x="570" y="277" width="60" height="40" as="geometry" />
        </mxCell>
        <mxCell id="5FUb5qHOoI7R9_QMYOB9-23" value="POD" style="rounded=0;whiteSpace=wrap;html=1;fillColor=#FFFFFF;" parent="1" vertex="1">
          <mxGeometry x="640" y="277" width="60" height="40" as="geometry" />
        </mxCell>
        <mxCell id="5FUb5qHOoI7R9_QMYOB9-24" value="POD" style="rounded=0;whiteSpace=wrap;html=1;fillColor=#FFFFFF;" parent="1" vertex="1">
          <mxGeometry x="710" y="277" width="60" height="40" as="geometry" />
        </mxCell>
        <mxCell id="5FUb5qHOoI7R9_QMYOB9-25" value="&lt;font color=&quot;#FF3108&quot;&gt;防御POD&lt;/font&gt;" style="rounded=0;whiteSpace=wrap;html=1;fillColor=#FFFFFF;strokeColor=#FF1E05;" parent="1" vertex="1">
          <mxGeometry x="500" y="277" width="60" height="40" as="geometry" />
        </mxCell>
        <mxCell id="5FUb5qHOoI7R9_QMYOB9-26" value="Worker Node " style="text;html=1;strokeColor=none;fillColor=none;align=center;verticalAlign=middle;whiteSpace=wrap;rounded=0;" parent="1" vertex="1">
          <mxGeometry x="570" y="327" width="130" height="20" as="geometry" />
        </mxCell>
        <mxCell id="5FUb5qHOoI7R9_QMYOB9-29" value="" style="endArrow=none;html=1;entryX=0;entryY=0.5;entryDx=0;entryDy=0;strokeColor=#FF0000;" parent="1" edge="1">
          <mxGeometry width="50" height="50" relative="1" as="geometry">
            <mxPoint x="421" y="160" as="sourcePoint" />
            <mxPoint x="499" y="160" as="targetPoint" />
          </mxGeometry>
        </mxCell>
        <mxCell id="5FUb5qHOoI7R9_QMYOB9-30" value="" style="endArrow=none;html=1;entryX=0;entryY=0.5;entryDx=0;entryDy=0;strokeColor=#FF0000;" parent="1" edge="1">
          <mxGeometry width="50" height="50" relative="1" as="geometry">
            <mxPoint x="421" y="297" as="sourcePoint" />
            <mxPoint x="499" y="297" as="targetPoint" />
          </mxGeometry>
        </mxCell>
        <mxCell id="5FUb5qHOoI7R9_QMYOB9-31" value="&lt;font style=&quot;font-size: 14px&quot;&gt;物理机/虚拟机/私有云主机/公有云主机&lt;/font&gt;" style="rounded=0;whiteSpace=wrap;html=1;strokeColor=#FF1E05;fillColor=#FFFFFF;" parent="1" vertex="1">
          <mxGeometry x="270" y="380" width="520" height="60" as="geometry" />
        </mxCell>
        <mxCell id="5FUb5qHOoI7R9_QMYOB9-32" value="&lt;font style=&quot;font-size: 18px&quot;&gt;平行容器部署方案&lt;/font&gt;" style="text;html=1;strokeColor=none;fillColor=none;align=center;verticalAlign=middle;whiteSpace=wrap;rounded=0;" parent="1" vertex="1">
          <mxGeometry x="270" y="50" width="510" height="40" as="geometry" />
        </mxCell>
        <mxCell id="b9owr5KaTSECks4s54gr-1" value="&lt;br&gt;&lt;div&gt;&lt;br&gt;&lt;/div&gt;&lt;div&gt;&lt;br&gt;&lt;/div&gt;&lt;div&gt;&lt;br&gt;&lt;/div&gt;&lt;div&gt;&lt;br&gt;&lt;/div&gt;&lt;div&gt;&lt;br&gt;&lt;/div&gt;&lt;div&gt;&lt;br&gt;&lt;/div&gt;&lt;div&gt;&lt;br&gt;&lt;/div&gt;&lt;div&gt;&lt;br&gt;&lt;/div&gt;&lt;div&gt;&lt;br&gt;&lt;/div&gt;&lt;div&gt;Master Node&lt;/div&gt;" style="rounded=0;whiteSpace=wrap;html=1;" vertex="1" parent="1">
          <mxGeometry x="837" y="112" width="150" height="238" as="geometry" />
        </mxCell>
        <mxCell id="b9owr5KaTSECks4s54gr-2" value="" style="aspect=fixed;html=1;points=[];align=center;image;fontSize=12;image=img/lib/mscae/Kubernetes.svg;" vertex="1" parent="1">
          <mxGeometry x="887" y="230" width="50" height="48" as="geometry" />
        </mxCell>
        <mxCell id="b9owr5KaTSECks4s54gr-3" value="&lt;div&gt;容器安全防护平台&lt;/div&gt;&lt;div&gt;管理中心&lt;/div&gt;" style="rounded=0;whiteSpace=wrap;html=1;fillColor=#CC0000;" vertex="1" parent="1">
          <mxGeometry x="837" y="110" width="150" height="60" as="geometry" />
        </mxCell>
        <mxCell id="b9owr5KaTSECks4s54gr-4" value="" style="rounded=0;whiteSpace=wrap;html=1;fillColor=#FFFFFF;" vertex="1" parent="1">
          <mxGeometry x="1047" y="110" width="310" height="100" as="geometry" />
        </mxCell>
        <mxCell id="b9owr5KaTSECks4s54gr-5" value="POD" style="rounded=0;whiteSpace=wrap;html=1;fillColor=#FFFFFF;" vertex="1" parent="1">
          <mxGeometry x="1137" y="140" width="60" height="40" as="geometry" />
        </mxCell>
        <mxCell id="b9owr5KaTSECks4s54gr-6" value="POD" style="rounded=0;whiteSpace=wrap;html=1;fillColor=#FFFFFF;" vertex="1" parent="1">
          <mxGeometry x="1207" y="140" width="60" height="40" as="geometry" />
        </mxCell>
        <mxCell id="b9owr5KaTSECks4s54gr-7" value="POD" style="rounded=0;whiteSpace=wrap;html=1;fillColor=#FFFFFF;" vertex="1" parent="1">
          <mxGeometry x="1277" y="140" width="60" height="40" as="geometry" />
        </mxCell>
        <mxCell id="b9owr5KaTSECks4s54gr-9" value="Worker Node " style="text;html=1;strokeColor=none;fillColor=none;align=center;verticalAlign=middle;whiteSpace=wrap;rounded=0;" vertex="1" parent="1">
          <mxGeometry x="1127" y="114" width="130" height="20" as="geometry" />
        </mxCell>
        <mxCell id="b9owr5KaTSECks4s54gr-10" value="" style="rounded=0;whiteSpace=wrap;html=1;fillColor=#FFFFFF;" vertex="1" parent="1">
          <mxGeometry x="1047" y="247" width="310" height="100" as="geometry" />
        </mxCell>
        <mxCell id="b9owr5KaTSECks4s54gr-11" value="POD" style="rounded=0;whiteSpace=wrap;html=1;fillColor=#FFFFFF;" vertex="1" parent="1">
          <mxGeometry x="1137" y="277" width="60" height="40" as="geometry" />
        </mxCell>
        <mxCell id="b9owr5KaTSECks4s54gr-12" value="POD" style="rounded=0;whiteSpace=wrap;html=1;fillColor=#FFFFFF;" vertex="1" parent="1">
          <mxGeometry x="1207" y="277" width="60" height="40" as="geometry" />
        </mxCell>
        <mxCell id="b9owr5KaTSECks4s54gr-13" value="POD" style="rounded=0;whiteSpace=wrap;html=1;fillColor=#FFFFFF;" vertex="1" parent="1">
          <mxGeometry x="1277" y="277" width="60" height="40" as="geometry" />
        </mxCell>
        <mxCell id="b9owr5KaTSECks4s54gr-15" value="Worker Node " style="text;html=1;strokeColor=none;fillColor=none;align=center;verticalAlign=middle;whiteSpace=wrap;rounded=0;" vertex="1" parent="1">
          <mxGeometry x="1137" y="327" width="130" height="20" as="geometry" />
        </mxCell>
        <mxCell id="b9owr5KaTSECks4s54gr-18" value="&lt;font style=&quot;font-size: 14px&quot;&gt;物理机/虚拟机/私有云主机/公有云主机 &lt;b&gt;&lt;font color=&quot;#FF0000&quot;&gt;agent&lt;/font&gt;&lt;/b&gt;&lt;/font&gt; " style="rounded=0;whiteSpace=wrap;html=1;strokeColor=#FF1E05;fillColor=#FFFFFF;" vertex="1" parent="1">
          <mxGeometry x="837" y="380" width="520" height="60" as="geometry" />
        </mxCell>
        <mxCell id="b9owr5KaTSECks4s54gr-19" value="&lt;font style=&quot;font-size: 18px&quot;&gt;宿主机agent部署方案&lt;/font&gt;" style="text;html=1;strokeColor=none;fillColor=none;align=center;verticalAlign=middle;whiteSpace=wrap;rounded=0;" vertex="1" parent="1">
          <mxGeometry x="837" y="50" width="510" height="40" as="geometry" />
        </mxCell>
        <mxCell id="b9owr5KaTSECks4s54gr-20" value="POD" style="rounded=0;whiteSpace=wrap;html=1;fillColor=#FFFFFF;" vertex="1" parent="1">
          <mxGeometry x="1062" y="140" width="60" height="40" as="geometry" />
        </mxCell>
        <mxCell id="b9owr5KaTSECks4s54gr-21" value="POD" style="rounded=0;whiteSpace=wrap;html=1;fillColor=#FFFFFF;" vertex="1" parent="1">
          <mxGeometry x="1064" y="277" width="60" height="40" as="geometry" />
        </mxCell>
        <mxCell id="b9owr5KaTSECks4s54gr-24" value="" style="endArrow=none;html=1;strokeColor=#FF0000;entryX=0.5;entryY=1;entryDx=0;entryDy=0;exitX=0.144;exitY=0.017;exitDx=0;exitDy=0;exitPerimeter=0;" edge="1" parent="1" source="b9owr5KaTSECks4s54gr-18" target="b9owr5KaTSECks4s54gr-1">
          <mxGeometry width="50" height="50" relative="1" as="geometry">
            <mxPoint x="890" y="380" as="sourcePoint" />
            <mxPoint x="940" y="330" as="targetPoint" />
          </mxGeometry>
        </mxCell>
      </root>
    </mxGraphModel>
  </diagram>
</mxfile>
